<svg xmlns="http://www.w3.org/2000/svg" xml:space="preserve" width="2000" height="1500" data-id="lg_iyqYaUnEHtOiwQ8FlW" data-version="1" viewBox="0 0 2000 1500"><path stroke="transparent" d="M0 0h2000v1500H0z"/><g data-padding="20"><g transform="translate(-995.968 -735.75)scale(1.9217)"><rect width="426.785" height="557.844" x="424.756" y="94.803" fill="none" rx="0" ry="0" transform="translate(400.5 399.42)"/><path fill="#fff" d="M950.11 927.725h-93.05v-424.24h95.22q32.3 0 51.82 12.89 19.53 12.9 28.33 37.25 8.8 24.34 8.8 58.81l.24 191.39q0 41.7-9.04 69.3-9.04 27.61-29.05 41.1-20.01 13.5-53.27 13.5m-28.44-374.59v324.45h21.21q11.33 0 18.92-4.58t11.33-16.27 3.74-33.14l-.25-209.47q0-32.54-7.95-46.76-7.95-14.23-27.96-14.23Zm189.15 374.59h-65.08v-424.24h64.6v195.25l64.6-195.25h66.77l-70.39 209.23 75.93 215.01h-68.21l-68.22-198.14Z"/></g><path fill="transparent" stroke="transparent" stroke-width="2.016" d="M569.556 187.5h860.888v1125H569.556z"/></g></svg>